<svg width="120" height="120" viewBox="0 0 120 120" fill="none" xmlns="http://www.w3.org/2000/svg">
<g clip-path="url(#clip0_5163_6793)">
<path d="M11.7308 84.7907H8.94017C8.8405 84.392 8.79067 83.9269 8.79067 83.3953C8.79067 82.8306 8.8405 82.3654 8.94017 82H11.7308C11.8305 82.3654 11.8803 82.8306 11.8803 83.3953C11.8803 83.9269 11.8305 84.392 11.7308 84.7907ZM14.5215 98.744C14.6212 99.1094 14.671 99.5746 14.671 100.139C14.671 100.671 14.6212 101.136 14.5215 101.535H6.1495C6.04983 101.136 6 100.671 6 100.139C6 99.5746 6.04983 99.1094 6.1495 98.744H8.94017C8.8405 98.3453 8.79067 97.8802 8.79067 97.3487C8.79067 96.7839 8.8405 96.3188 8.94017 95.9533C8.8405 95.5547 8.79067 95.0896 8.79067 94.558C8.79067 93.9932 8.8405 93.5281 8.94017 93.1627C8.8405 92.764 8.79067 92.2989 8.79067 91.7673C8.79067 91.2026 8.8405 90.7374 8.94017 90.372H6.84717C6.7475 89.9733 6.69767 89.5082 6.69767 88.9767C6.69767 88.4119 6.7475 87.9468 6.84717 87.5813H11.7308C11.8305 87.9468 11.8803 88.4119 11.8803 88.9767C11.8803 89.5082 11.8305 89.9733 11.7308 90.372C11.8305 90.7374 11.8803 91.2026 11.8803 91.7673C11.8803 92.2989 11.8305 92.764 11.7308 93.1627C11.8305 93.5281 11.8803 93.9932 11.8803 94.558C11.8803 95.0896 11.8305 95.5547 11.7308 95.9533C11.8305 96.3188 11.8803 96.7839 11.8803 97.3487C11.8803 97.8802 11.8305 98.3453 11.7308 98.744H14.5215ZM27.0795 95.9533H29.8702C29.9698 96.3188 30.0197 96.7839 30.0197 97.3487C30.0197 97.8802 29.9698 98.3453 29.8702 98.744H28.4748C28.5745 99.1094 28.6243 99.5746 28.6243 100.139C28.6243 100.671 28.5745 101.136 28.4748 101.535H21.4982C21.3985 101.136 21.3487 100.671 21.3487 100.139C21.3487 99.5746 21.3985 99.1094 21.4982 98.744H20.1028C20.0032 98.3453 19.9533 97.8802 19.9533 97.3487C19.9533 96.7839 20.0032 96.3188 20.1028 95.9533H18.7075C18.6078 95.5547 18.558 95.0896 18.558 94.558C18.558 93.9932 18.6078 93.5281 18.7075 93.1627C18.6078 92.764 18.558 92.2989 18.558 91.7673C18.558 91.2026 18.6078 90.7374 18.7075 90.372C18.6078 89.9733 18.558 89.5082 18.558 88.9767C18.558 88.4119 18.6078 87.9468 18.7075 87.5813H20.1028C20.0032 87.1827 19.9533 86.7176 19.9533 86.186C19.9533 85.6212 20.0032 85.1561 20.1028 84.7907H21.4982C21.3985 84.392 21.3487 83.9269 21.3487 83.3953C21.3487 82.8306 21.3985 82.3654 21.4982 82H28.4748C28.5745 82.3654 28.6243 82.8306 28.6243 83.3953C28.6243 83.9269 28.5745 84.392 28.4748 84.7907H29.8702C29.9698 85.1561 30.0197 85.6212 30.0197 86.186C30.0197 86.7176 29.9698 87.1827 29.8702 87.5813H27.0795C26.9798 87.1827 26.93 86.7176 26.93 86.186C26.93 85.6212 26.9798 85.1561 27.0795 84.7907H22.8935C22.9932 85.1561 23.043 85.6212 23.043 86.186C23.043 86.7176 22.9932 87.1827 22.8935 87.5813H21.4982C21.5978 87.9468 21.6477 88.4119 21.6477 88.9767C21.6477 89.5082 21.5978 89.9733 21.4982 90.372C21.5978 90.7374 21.6477 91.2026 21.6477 91.7673C21.6477 92.2989 21.5978 92.764 21.4982 93.1627C21.5978 93.5281 21.6477 93.9932 21.6477 94.558C21.6477 95.0896 21.5978 95.5547 21.4982 95.9533H22.8935C22.9932 96.3188 23.043 96.7839 23.043 97.3487C23.043 97.8802 22.9932 98.3453 22.8935 98.744H27.0795C26.9798 98.3453 26.93 97.8802 26.93 97.3487C26.93 96.7839 26.9798 96.3188 27.0795 95.9533ZM35.601 88.9767C35.601 89.5082 35.5512 89.9733 35.4515 90.372H36.498C36.5977 90.7374 36.6475 91.2026 36.6475 91.7673C36.6475 92.2989 36.5977 92.764 36.498 93.1627H35.4515C35.5512 93.5281 35.601 93.9932 35.601 94.558C35.601 95.0896 35.5512 95.5547 35.4515 95.9533C35.5512 96.3188 35.601 96.7839 35.601 97.3487C35.601 97.8802 35.5512 98.3453 35.4515 98.744C35.5512 99.1094 35.601 99.5746 35.601 100.139C35.601 100.671 35.5512 101.136 35.4515 101.535H32.6608C32.5612 101.136 32.5113 100.671 32.5113 100.139C32.5113 99.5746 32.5612 99.1094 32.6608 98.744C32.5612 98.3453 32.5113 97.8802 32.5113 97.3487C32.5113 96.7839 32.5612 96.3188 32.6608 95.9533C32.5612 95.5547 32.5113 95.0896 32.5113 94.558C32.5113 93.9932 32.5612 93.5281 32.6608 93.1627C32.5612 92.764 32.5113 92.2989 32.5113 91.7673C32.5113 91.2026 32.5612 90.7374 32.6608 90.372C32.5612 89.9733 32.5113 89.5082 32.5113 88.9767C32.5113 88.4119 32.5612 87.9468 32.6608 87.5813C32.5612 87.1827 32.5113 86.7176 32.5113 86.186C32.5113 85.6212 32.5612 85.1561 32.6608 84.7907C32.5612 84.392 32.5113 83.9269 32.5113 83.3953C32.5113 82.8306 32.5612 82.3654 32.6608 82H35.4515C35.5512 82.3654 35.601 82.8306 35.601 83.3953C35.601 83.9269 35.5512 84.392 35.4515 84.7907C35.5512 85.1561 35.601 85.6212 35.601 86.186C35.601 86.7176 35.5512 87.1827 35.4515 87.5813C35.5512 87.9468 35.601 88.4119 35.601 88.9767ZM43.8235 93.1627C43.9232 93.5281 43.973 93.9932 43.973 94.558C43.973 95.0896 43.9232 95.5547 43.8235 95.9533C43.9232 96.3188 43.973 96.7839 43.973 97.3487C43.973 97.8802 43.9232 98.3453 43.8235 98.744C43.9232 99.1094 43.973 99.5746 43.973 100.139C43.973 100.671 43.9232 101.136 43.8235 101.535H41.0328C40.9332 101.136 40.8833 100.671 40.8833 100.139C40.8833 99.5746 40.9332 99.1094 41.0328 98.744C40.9332 98.3453 40.8833 97.8802 40.8833 97.3487C40.8833 96.7839 40.9332 96.3188 41.0328 95.9533C40.9332 95.5547 40.8833 95.0896 40.8833 94.558C40.8833 93.9932 40.9332 93.5281 41.0328 93.1627C40.9332 92.764 40.8833 92.2989 40.8833 91.7673C40.8833 91.2026 40.9332 90.7374 41.0328 90.372H36.498C36.3983 89.9733 36.3485 89.5082 36.3485 88.9767C36.3485 88.4119 36.3983 87.9468 36.498 87.5813H42.0793C42.179 87.9468 42.2288 88.4119 42.2288 88.9767C42.2288 89.5082 42.179 89.9733 42.0793 90.372H43.8235C43.9232 90.7374 43.973 91.2026 43.973 91.7673C43.973 92.2989 43.9232 92.764 43.8235 93.1627ZM57.7768 98.744C57.8765 99.1094 57.9263 99.5746 57.9263 100.139C57.9263 100.671 57.8765 101.136 57.7768 101.535H54.9862C54.8865 101.136 54.8367 100.671 54.8367 100.139C54.8367 99.5746 54.8865 99.1094 54.9862 98.744H53.5908C53.4912 98.3453 53.4413 97.8802 53.4413 97.3487C53.4413 96.7839 53.4912 96.3188 53.5908 95.9533H49.4048C49.5045 96.3188 49.5543 96.7839 49.5543 97.3487C49.5543 97.8802 49.5045 98.3453 49.4048 98.744H53.5908C53.6905 99.1094 53.7403 99.5746 53.7403 100.139C53.7403 100.671 53.6905 101.136 53.5908 101.535H48.0095C47.9098 101.136 47.86 100.671 47.86 100.139C47.86 99.5746 47.9098 99.1094 48.0095 98.744H46.6142C46.5145 98.3453 46.4647 97.8802 46.4647 97.3487C46.4647 96.7839 46.5145 96.3188 46.6142 95.9533H48.0095C47.9098 95.5547 47.86 95.0896 47.86 94.558C47.86 93.9932 47.9098 93.5281 48.0095 93.1627H53.5908C53.4912 92.764 53.4413 92.2989 53.4413 91.7673C53.4413 91.2026 53.4912 90.7374 53.5908 90.372H48.7072C48.6075 89.9733 48.5577 89.5082 48.5577 88.9767C48.5577 88.4119 48.6075 87.9468 48.7072 87.5813H54.9862C55.0858 87.9468 55.1357 88.4119 55.1357 88.9767C55.1357 89.5082 55.0858 89.9733 54.9862 90.372H56.3815C56.4812 90.7374 56.531 91.2026 56.531 91.7673C56.531 92.2989 56.4812 92.764 56.3815 93.1627C56.4812 93.5281 56.531 93.9932 56.531 94.558C56.531 95.0896 56.4812 95.5547 56.3815 95.9533C56.4812 96.3188 56.531 96.7839 56.531 97.3487C56.531 97.8802 56.4812 98.3453 56.3815 98.744H57.7768ZM66.1488 98.744H70.3348C70.4345 99.1094 70.4843 99.5746 70.4843 100.139C70.4843 100.671 70.4345 101.136 70.3348 101.535H64.7535C64.6538 101.136 64.604 100.671 64.604 100.139C64.604 99.5746 64.6538 99.1094 64.7535 98.744H63.3582C63.2585 98.3453 63.2087 97.8802 63.2087 97.3487C63.2087 96.7839 63.2585 96.3188 63.3582 95.9533C63.2585 95.5547 63.2087 95.0896 63.2087 94.558C63.2087 93.9932 63.2585 93.5281 63.3582 93.1627C63.2585 92.764 63.2087 92.2989 63.2087 91.7673C63.2087 91.2026 63.2585 90.7374 63.3582 90.372H60.5675C60.4678 89.9733 60.418 89.5082 60.418 88.9767C60.418 88.4119 60.4678 87.9468 60.5675 87.5813H63.3582C63.2585 87.1827 63.2087 86.7176 63.2087 86.186C63.2087 85.6212 63.2585 85.1561 63.3582 84.7907C63.2585 84.392 63.2087 83.9269 63.2087 83.3953C63.2087 82.8306 63.2585 82.3654 63.3582 82H66.1488C66.2485 82.3654 66.2983 82.8306 66.2983 83.3953C66.2983 83.9269 66.2485 84.392 66.1488 84.7907C66.2485 85.1561 66.2983 85.6212 66.2983 86.186C66.2983 86.7176 66.2485 87.1827 66.1488 87.5813H70.3348C70.4345 87.9468 70.4843 88.4119 70.4843 88.9767C70.4843 89.5082 70.4345 89.9733 70.3348 90.372H66.1488C66.2485 90.7374 66.2983 91.2026 66.2983 91.7673C66.2983 92.2989 66.2485 92.764 66.1488 93.1627C66.2485 93.5281 66.2983 93.9932 66.2983 94.558C66.2983 95.0896 66.2485 95.5547 66.1488 95.9533C66.2485 96.3188 66.2983 96.7839 66.2983 97.3487C66.2983 97.8802 66.2485 98.3453 66.1488 98.744ZM80.1021 98.744H84.2881C84.3878 99.1094 84.4377 99.5746 84.4377 100.139C84.4377 100.671 84.3878 101.136 84.2881 101.535H78.7068C78.6072 101.136 78.5573 100.671 78.5573 100.139C78.5573 99.5746 78.6072 99.1094 78.7068 98.744H77.3115C77.2118 98.3453 77.162 97.8802 77.162 97.3487C77.162 96.7839 77.2118 96.3188 77.3115 95.9533C77.2118 95.5547 77.162 95.0896 77.162 94.558C77.162 93.9932 77.2118 93.5281 77.3115 93.1627C77.2118 92.764 77.162 92.2989 77.162 91.7673C77.162 91.2026 77.2118 90.7374 77.3115 90.372H74.5208C74.4212 89.9733 74.3713 89.5082 74.3713 88.9767C74.3713 88.4119 74.4212 87.9468 74.5208 87.5813H77.3115C77.2118 87.1827 77.162 86.7176 77.162 86.186C77.162 85.6212 77.2118 85.1561 77.3115 84.7907C77.2118 84.392 77.162 83.9269 77.162 83.3953C77.162 82.8306 77.2118 82.3654 77.3115 82H80.1021C80.2018 82.3654 80.2517 82.8306 80.2517 83.3953C80.2517 83.9269 80.2018 84.392 80.1021 84.7907C80.2018 85.1561 80.2517 85.6212 80.2517 86.186C80.2517 86.7176 80.2018 87.1827 80.1021 87.5813H84.2881C84.3878 87.9468 84.4377 88.4119 84.4377 88.9767C84.4377 89.5082 84.3878 89.9733 84.2881 90.372H80.1021C80.2018 90.7374 80.2517 91.2026 80.2517 91.7673C80.2517 92.2989 80.2018 92.764 80.1021 93.1627C80.2018 93.5281 80.2517 93.9932 80.2517 94.558C80.2517 95.0896 80.2018 95.5547 80.1021 95.9533C80.2018 96.3188 80.2517 96.7839 80.2517 97.3487C80.2517 97.8802 80.2018 98.3453 80.1021 98.744ZM99.7863 91.7673C99.7863 92.2989 99.7365 92.764 99.6368 93.1627C99.7365 93.5281 99.7863 93.9932 99.7863 94.558C99.7863 95.0896 99.7365 95.5547 99.6368 95.9533H92.3113C92.411 96.3188 92.4608 96.7839 92.4608 97.3487C92.4608 97.8802 92.411 98.3453 92.3113 98.744H98.2415C98.3411 99.1094 98.391 99.5746 98.391 100.139C98.391 100.671 98.3411 101.136 98.2415 101.535H91.2648C91.1651 101.136 91.1153 100.671 91.1153 100.139C91.1153 99.5746 91.1651 99.1094 91.2648 98.744H89.5206C89.421 98.3453 89.3711 97.8802 89.3711 97.3487C89.3711 96.7839 89.421 96.3188 89.5206 95.9533H88.4741C88.3745 95.5547 88.3246 95.0896 88.3246 94.558C88.3246 93.9932 88.3745 93.5281 88.4741 93.1627H89.5206C89.421 92.764 89.3711 92.2989 89.3711 91.7673C89.3711 91.2026 89.421 90.7374 89.5206 90.372H91.2648C91.1651 89.9733 91.1153 89.5082 91.1153 88.9767C91.1153 88.4119 91.1651 87.9468 91.2648 87.5813H98.2415C98.3411 87.9468 98.391 88.4119 98.391 88.9767C98.391 89.5082 98.3411 89.9733 98.2415 90.372H99.6368C99.7365 90.7374 99.7863 91.2026 99.7863 91.7673ZM96.8461 93.1627C96.7465 92.764 96.6966 92.2989 96.6966 91.7673C96.6966 91.2026 96.7465 90.7374 96.8461 90.372H92.3113C92.411 90.7374 92.4608 91.2026 92.4608 91.7673C92.4608 92.2989 92.411 92.764 92.3113 93.1627H96.8461ZM113.59 90.372C113.69 90.7374 113.74 91.2026 113.74 91.7673C113.74 92.2989 113.69 92.764 113.59 93.1627H110.799C110.7 92.764 110.65 92.2989 110.65 91.7673C110.65 91.2026 110.7 90.7374 110.799 90.372H108.358C108.457 90.7374 108.507 91.2026 108.507 91.7673C108.507 92.2989 108.457 92.764 108.358 93.1627H107.311C107.411 93.5281 107.461 93.9932 107.461 94.558C107.461 95.0896 107.411 95.5547 107.311 95.9533C107.411 96.3188 107.461 96.7839 107.461 97.3487C107.461 97.8802 107.411 98.3453 107.311 98.744H109.404C109.504 99.1094 109.554 99.5746 109.554 100.139C109.554 100.671 109.504 101.136 109.404 101.535H102.427C102.328 101.136 102.278 100.671 102.278 100.139C102.278 99.5746 102.328 99.1094 102.427 98.744H104.52C104.421 98.3453 104.371 97.8802 104.371 97.3487C104.371 96.7839 104.421 96.3188 104.52 95.9533C104.421 95.5547 104.371 95.0896 104.371 94.558C104.371 93.9932 104.421 93.5281 104.52 93.1627C104.421 92.764 104.371 92.2989 104.371 91.7673C104.371 91.2026 104.421 90.7374 104.52 90.372H102.427C102.328 89.9733 102.278 89.5082 102.278 88.9767C102.278 88.4119 102.328 87.9468 102.427 87.5813H105.916C106.015 87.9468 106.065 88.4119 106.065 88.9767C106.065 89.5082 106.015 89.9733 105.916 90.372H107.311C107.211 89.9733 107.162 89.5082 107.162 88.9767C107.162 88.4119 107.211 87.9468 107.311 87.5813H112.544C112.643 87.9468 112.693 88.4119 112.693 88.9767C112.693 89.5082 112.643 89.9733 112.544 90.372H113.59Z" fill="#ffffff"/>
<path d="M70.7427 35.875C70.7427 44.2973 63.9217 51.125 55.5 51.125C55.5 46.9184 52.0816 43.5 47.875 43.5H40.2427C32.625 43.5 25 39.2111 25 28.25C25 17.051 32.625 13 40.2427 13H55.5C63.125 13 70.7427 17.7244 70.7427 28.25V35.875Z" fill="#ffffff"/>
<path d="M74.5253 36.2806C74.3014 46.5976 65.8651 54.9375 55.5 54.9375H51.6875V51.125C51.686 50.1143 51.2839 49.1454 50.5692 48.4308C49.8546 47.7161 48.8857 47.3139 47.875 47.3125H40.63C40.3735 48.5671 40.2438 49.8444 40.2427 51.125V58.75C40.2427 67.1723 47.0777 74 55.5 74C55.5 69.7855 58.9184 66.375 63.125 66.375H70.7427C78.375 66.375 86 62.0861 86 51.125C86 41.7987 80.6912 37.4762 74.5253 36.2806Z" fill="#00E9D7"/>
</g>
<defs>
<clipPath id="clip0_5163_6793">
<rect width="120" height="120" fill="white"/>
</clipPath>
</defs>
</svg>
