<svg width="61" height="61" viewBox="0 0 61 61" fill="none" xmlns="http://www.w3.org/2000/svg">
<path d="M45.7427 22.875C45.7427 31.2973 38.9217 38.125 30.5 38.125C30.5 33.9184 27.0816 30.5 22.875 30.5H15.2427C7.625 30.5 0 26.2111 0 15.25C0 4.05101 7.625 0 15.2427 0H30.5C38.125 0 45.7427 4.72445 45.7427 15.25V22.875Z" fill="#ffffff"/>
<path d="M49.5253 23.2806C49.3014 33.5976 40.8651 41.9375 30.5 41.9375H26.6875V38.125C26.686 37.1143 26.2839 36.1454 25.5692 35.4308C24.8546 34.7161 23.8857 34.3139 22.875 34.3125H15.63C15.3735 35.5671 15.2438 36.8444 15.2427 38.125V45.75C15.2427 54.1723 22.0777 61 30.5 61C30.5 56.7855 33.9184 53.375 38.125 53.375H45.7427C53.375 53.375 61 49.0861 61 38.125C61 28.7987 55.6912 24.4762 49.5253 23.2806Z" fill="#00E9D7"/>
</svg>
